<svg xmlns="http://www.w3.org/2000/svg" viewBox="0 0 49.34 8.69"><defs><style>.cls-1{fill:#fff;}</style></defs><g id="Layer_2" data-name="Layer 2"><g id="Layer_1-2" data-name="Layer 1"><g id="Layer_2-2" data-name="Layer 2"><g id="Layer_1-2-2" data-name="Layer 1-2"><path class="cls-1" d="M2.52,7.27a8.37,8.37,0,0,1-1,0A1.49,1.49,0,0,1,.18,5.66a6.08,6.08,0,0,0-.18-1c.53-.3.62-1.41,1.64-.85a15.29,15.29,0,0,1,.73-1.46c.47-.74,1-1.46,2.07-1.11A1.28,1.28,0,0,0,5.35,1C5.53.83,10.51.42,12.85.2A58.81,58.81,0,0,1,20.12.08c1,.1,5.44.24,6.62.26.23,0,1.85,0,2.08.06l2.26.19c1.22.18,2,.23,3.19.39s2.32.39,2.32.39c1.21.24,1.59.23,2.87.54a3.19,3.19,0,0,1,.58.3l-.48.29s.06.12.1.13c.34.06.67.14,1,.23a17.85,17.85,0,0,1,1.87.76c1,.47,1.88,1.21,3.08,1.16a1,1,0,0,1,.62.32A6.91,6.91,0,0,0,49,7a.76.76,0,0,1,.28.22.75.75,0,0,0,.06.3c-.88.25-1.56-.4-2.34-.54s-1.66-.56-2.51-.76A17.49,17.49,0,0,0,42,5.78c-.77-.09-1.51-.65-2.54-.2l.84.26a.22.22,0,0,1-.1.15l-2.8-.21a.75.75,0,0,0-.64.35l.2,0a5.27,5.27,0,0,1,2.63,1.67.73.73,0,0,0,.35.19,5.62,5.62,0,0,1-1-.15,25.33,25.33,0,0,1-4.08-1.26A3.67,3.67,0,0,0,33,6.54a23.51,23.51,0,0,1-5.56.21,20.37,20.37,0,0,0-2.21,0,2.08,2.08,0,0,1-.7-.1l-.68-.25a5.3,5.3,0,0,0-1-.18,36.7,36.7,0,0,0-5,0l-3.65.36c-1.38.13-2.73.45-4.1.7-.11,0-.24.16-.33.13a2.55,2.55,0,0,0-2,.24c-.55.29-1.09.6-1.77,1,.12-.74.73-1.31.33-2.08-.66-.07-.91.48-2,.48M39.4,3.48h0Z"/></g></g></g></g></svg>